<svg id="Laag_2" data-name="Laag 2" xmlns="http://www.w3.org/2000/svg" viewBox="0 0 73.94 37.19"><defs><style>.cls-1{fill:#13100d;}</style></defs><title>logo</title><circle class="cls-1" cx="3.77" cy="14.56" r="3.77"/><circle class="cls-1" cx="22.63" cy="14.56" r="3.77"/><circle class="cls-1" cx="13.2" cy="5.13" r="3.77"/><circle class="cls-1" cx="13.2" cy="23.99" r="3.77"/><circle class="cls-1" cx="22.63" cy="5.13" r="3.77"/><circle class="cls-1" cx="22.63" cy="23.99" r="3.77"/><circle class="cls-1" cx="13.2" cy="14.56" r="3.77"/><circle class="cls-1" cx="13.2" cy="33.42" r="3.77"/><circle class="cls-1" cx="3.77" cy="5.13" r="3.77"/><circle class="cls-1" cx="3.77" cy="23.99" r="3.77"/><path class="cls-1" d="M566.58,531.37h-1.23v-2a1.1,1.1,0,1,0-2.2,0V538a1.1,1.1,0,1,0,2.2,0v-4.66h1.23a1,1,0,1,0,0-1.92Z" transform="translate(-527.45 -527.74)"/><path class="cls-1" d="M576.39,554.05c0,.52,0,1.32-1.07,1.32a1,1,0,0,1-1.07-.86,2.78,2.78,0,0,1-2.12.94,3.68,3.68,0,0,1-3.69-3.89,3.77,3.77,0,0,1,3.69-3.92,2.65,2.65,0,0,1,2.12.93,1,1,0,0,1,1.07-.84c1.07,0,1.07.8,1.07,1.32Zm-3.95-.45a2.08,2.08,0,0,0,0-4.1,2.07,2.07,0,0,0,0,4.1Z" transform="translate(-527.45 -527.74)"/><path class="cls-1" d="M601.34,537.76c0,.52,0,1.32-1.07,1.32a1,1,0,0,1-1.07-.86,2.78,2.78,0,0,1-2.12.94,3.68,3.68,0,0,1-3.69-3.89,3.77,3.77,0,0,1,3.69-3.92,2.65,2.65,0,0,1,2.12.93,1,1,0,0,1,1.07-.84c1.07,0,1.07.8,1.07,1.32Zm-3.95-.45a2.08,2.08,0,0,0,0-4.1,2.07,2.07,0,0,0,0,4.1Z" transform="translate(-527.45 -527.74)"/><path class="cls-1" d="M576.39,537.76c0,.52,0,1.32-1.07,1.32a1,1,0,0,1-1.07-.86,2.78,2.78,0,0,1-2.12.94,3.68,3.68,0,0,1-3.69-3.89,3.77,3.77,0,0,1,3.69-3.92,2.65,2.65,0,0,1,2.12.93,1,1,0,0,1,1.07-.84c1.07,0,1.07.8,1.07,1.32Zm-3.95-.45a2.08,2.08,0,0,0,0-4.1,2.07,2.07,0,0,0,0,4.1Z" transform="translate(-527.45 -527.74)"/><path class="cls-1" d="M583.73,532.56a1.07,1.07,0,0,1,1.11-1.12,1,1,0,0,1,1.11.84,2.57,2.57,0,0,1,2.12-.93c2.4,0,3.59,2,3.59,4a3.72,3.72,0,0,1-3.67,3.81,3.37,3.37,0,0,1-2-.7v2.67a1.11,1.11,0,1,1-2.23,0Zm4,4.75a2.08,2.08,0,0,0,0-4.1,1.81,1.81,0,0,0-1.75,2A1.89,1.89,0,0,0,587.71,537.31Z" transform="translate(-527.45 -527.74)"/><path class="cls-1" d="M580.08,527.74a1.06,1.06,0,0,0-1.1,1.12V538a1.1,1.1,0,1,0,2.2,0v-9.09A1.06,1.06,0,0,0,580.08,527.74Z" transform="translate(-527.45 -527.74)"/><path class="cls-1" d="M563.15,548.74a1,1,0,0,1,1.06-1c.54,0,1,.2,1,.86h0a2,2,0,0,1,1.6-.93,1,1,0,0,1,1,1.1c0,.63-.61.71-1.23,1s-1.4.63-1.4,1.45v3.16a1,1,0,1,1-2.06,0Z" transform="translate(-527.45 -527.74)"/><path class="cls-1" d="M586,554.25a1.07,1.07,0,0,1-1.11,1.12,1,1,0,0,1-1.11-.84,2.57,2.57,0,0,1-2.12.93c-2.4,0-3.59-2-3.59-4a3.72,3.72,0,0,1,3.67-3.81,3.37,3.37,0,0,1,2,.7v-2.67a1.11,1.11,0,1,1,2.23,0Zm-4-4.75a2.08,2.08,0,0,0,0,4.1,1.81,1.81,0,0,0,1.75-2A1.89,1.89,0,0,0,582,549.5Z" transform="translate(-527.45 -527.74)"/><path class="cls-1" d="M589.65,547.62a1.06,1.06,0,0,0-1.1,1.12v5.52a1.1,1.1,0,1,0,2.2,0v-5.52A1.06,1.06,0,0,0,589.65,547.62Z" transform="translate(-527.45 -527.74)"/><path class="cls-1" d="M590.81,545.67a1.18,1.18,0,0,1-1.16,1.18,1.21,1.21,0,0,1-1.16-1.18,1.16,1.16,0,0,1,2.31,0Z" transform="translate(-527.45 -527.74)"/><path class="cls-1" d="M601.39,551.56a4.13,4.13,0,0,1-8.25,0,4.13,4.13,0,0,1,8.25,0Zm-5.95,0a1.84,1.84,0,1,0,1.82-2.08A1.88,1.88,0,0,0,595.44,551.56Z" transform="translate(-527.45 -527.74)"/></svg>